<?xml version="1.0" encoding="UTF-8" standalone="no"?>
<!-- Created with Inkscape (http://www.inkscape.org/) -->

<svg
   width="512"
   height="512"
   viewBox="0 0 135.46666 135.46667"
   version="1.1"
   id="svg5"
   xml:space="preserve"
   inkscape:version="1.2.2 (732a01da63, 2022-12-09)"
   sodipodi:docname="knx-launcher.svg"
   inkscape:export-filename="knx-launcher-008.png"
   inkscape:export-xdpi="1.5"
   inkscape:export-ydpi="1.5"
   xmlns:inkscape="http://www.inkscape.org/namespaces/inkscape"
   xmlns:sodipodi="http://sodipodi.sourceforge.net/DTD/sodipodi-0.dtd"
   xmlns="http://www.w3.org/2000/svg"
   xmlns:svg="http://www.w3.org/2000/svg"><sodipodi:namedview
     id="namedview7"
     pagecolor="#ffffff"
     bordercolor="#000000"
     borderopacity="0.25"
     inkscape:showpageshadow="2"
     inkscape:pageopacity="0.0"
     inkscape:pagecheckerboard="0"
     inkscape:deskcolor="#d1d1d1"
     inkscape:document-units="px"
     showgrid="false"
     inkscape:zoom="0.67402315"
     inkscape:cx="336.04187"
     inkscape:cy="360.52174"
     inkscape:window-width="1366"
     inkscape:window-height="715"
     inkscape:window-x="-8"
     inkscape:window-y="-8"
     inkscape:window-maximized="1"
     inkscape:current-layer="layer1" /><defs
     id="defs2">
	

		
		
	
			
			
			
			
			
			
			
			
			
		
				
			
				
			
				
			
			
			
			
			
			
			
			
			
			
			
			
			
			
			
		
				
			
				
			
				
			
				
			
				
			
				
			
				
			
				
			
				
			
				
			
				
			
				
			
				
			
				
			
				
			
				
			
				
			
				
			
				
			
				
			</defs><g
     inkscape:label="Camada 1"
     inkscape:groupmode="layer"
     id="layer1"><g
       id="g734"><path
         style="fill:#5e2a41;stroke-width:0.325298"
         d="m 33.045052,105.67956 c -0.832417,0 -1.664834,-0.31783 -2.300125,-0.95282 -1.270257,-1.27032 -1.270582,-3.33016 -3.25e-4,-4.60081 L 43.642346,87.227565 c 1.270257,-1.269993 3.329992,-1.269993 4.600249,0 1.270257,1.270318 1.270582,3.330152 3.25e-4,4.60047 L 35.345177,104.72641 c -0.634966,0.63565 -1.467708,0.95315 -2.300125,0.95315 z"
         id="path194" /><path
         style="fill:#5e2a41;stroke-width:0.325298"
         d="m 39.693977,112.32262 c -1.084516,0 -2.144636,-0.54196 -2.761711,-1.52958 -0.951798,-1.52374 -0.48826,-3.53087 1.035072,-4.48239 l 15.874147,-9.918579 c 1.523332,-0.95282 3.530371,-0.488934 4.482494,1.035122 0.951798,1.523731 0.48826,3.530547 -1.035072,4.482397 l -15.874146,9.91857 c -0.536403,0.33506 -1.132009,0.49446 -1.720784,0.49446 z"
         id="path198" /><path
         style="fill:#5e2a41;stroke-width:0.325298"
         d="m 26.399705,99.033877 c -0.588775,0 -1.184706,-0.1594 -1.720783,-0.494789 -1.523658,-0.951844 -1.986871,-2.958979 -1.035073,-4.482385 l 9.918089,-15.874908 c 0.952123,-1.523731 2.959162,-1.987617 4.482494,-1.035122 1.523658,0.951843 1.986871,2.958978 1.035073,4.482384 l -9.918089,15.874908 c -0.617075,0.987628 -1.677195,1.529912 -2.761711,1.529912 z"
         id="path190" /><path
         style="fill:#5e2a41;stroke-width:0.325298"
         d="m 48.836249,117.40617 c -3.398628,0 -6.740982,-1.32887 -9.218715,-3.80998 l -2.141058,-2.14116 c -0.03025,-0.028 -0.05985,-0.0563 -0.0888,-0.0855 L 21.873296,95.854016 C 18.29771,92.273704 17.116582,86.89803 18.861437,82.155727 l 4.785014,-12.996606 c 0.134345,-0.364342 0.332447,-0.701684 0.585197,-0.99576 l 28.34576,-32.992484 c 1.171369,-1.362379 3.224599,-1.5182 4.587238,-0.347426 1.362639,1.1711 1.518128,3.224753 0.34741,4.587458 L 29.548511,71.957725 24.966478,84.402937 c -0.872428,2.371152 -0.281051,5.060452 1.506743,6.850609 L 41.90237,106.68378 c 0.02993,0.028 0.05985,0.0563 0.0888,0.0855 l 2.228236,2.22834 c 1.788118,1.79049 4.474688,2.38059 6.846701,1.50617 l 12.442989,-4.58323 45.313524,-38.930951 c 1.36329,-1.1711 3.41684,-1.014628 4.58723,0.347426 1.17105,1.362705 1.01523,3.416684 -0.34741,4.587458 L 67.303281,111.2374 c -0.294062,0.25277 -0.631062,0.4512 -0.995062,0.58523 l -12.992403,4.78524 c -1.456973,0.53741 -2.974125,0.7983 -4.479567,0.7983 z"
         id="path206" /><path
         style="fill:#5e2a41;stroke-width:0.325298"
         d="m 12.040287,108.30797 c -0.832417,0 -1.665159,-0.31782 -2.3001257,-0.95282 -1.2702564,-1.27032 -1.2702564,-3.33015 0,-4.6008 l 6.6814557,-6.681759 c 1.270257,-1.269993 3.329993,-1.269993 4.600575,0 1.270257,1.270318 1.270257,3.330145 0,4.600779 l -6.681454,6.68178 c -0.635291,0.635 -1.467708,0.95282 -2.300451,0.95282 z"
         id="path170" /><path
         style="fill:#5e2a41;stroke-width:0.325298"
         d="m 5.8988136,133.34999 c -0.8327421,0 -1.6651589,-0.31783 -2.30045,-0.95315 -1.2702571,-1.27032 -1.2699318,-3.33015 3.253e-4,-4.60047 L 25.871288,105.52596 c 1.270257,-1.27 3.329993,-1.27 4.60025,3.2e-4 1.270257,1.27032 1.269932,3.33015 -6.51e-4,4.60047 L 8.1982882,132.39717 c -0.6346407,0.63532 -1.4670578,0.95282 -2.2994746,0.95282 z"
         id="path174" /><path
         style="fill:#5e2a41;stroke-width:0.325298"
         d="m 26.486412,131.6649 c -0.832742,0 -1.664834,-0.31782 -2.300125,-0.95282 -1.270257,-1.27031 -1.270257,-3.33015 0,-4.60079 l 11.134672,-11.13488 c 1.270257,-1.27 3.329993,-1.26967 4.60025,0 1.270257,1.27031 1.270257,3.33015 0,4.60079 l -11.134673,11.13488 c -0.634965,0.635 -1.467708,0.95282 -2.300124,0.95282 z"
         id="path178" /><path
         style="fill:#5e2a41;stroke-width:0.325298"
         d="m 65.183692,112.02302 c -0.832742,0 -1.664833,-0.31783 -2.300125,-0.95282 L 24.398522,72.583287 c -1.270257,-1.270318 -1.270257,-3.330152 0,-4.600796 1.270257,-1.269992 3.329992,-1.269992 4.600574,0 l 38.485046,38.487239 c 1.270257,1.27031 1.270257,3.33015 0,4.60079 -0.635291,0.635 -1.468033,0.9525 -2.30045,0.9525 z"
         id="path182" /><path
         style="fill:#5e2a41;stroke-width:0.325298"
         d="m 55.046358,40.543623 c -0.750443,0 -1.504465,-0.258293 -2.118287,-0.785613 -1.36264,-1.170774 -1.518454,-3.224428 -0.347735,-4.587458 L 63.545858,22.405564 c 1.170393,-1.362379 3.223948,-1.518526 4.587237,-0.347426 1.36264,1.170774 1.518454,3.224428 0.34741,4.587133 L 57.514983,39.410259 c -0.643098,0.748853 -1.553259,1.133364 -2.468625,1.133364 z"
         id="path202" /><path
         style="fill:#5e2a41;stroke-width:0.325298"
         d="m 110.9422,72.709831 c -0.83241,0 -1.66483,-0.317824 -2.30012,-0.95282 -1.27026,-1.270318 -1.27026,-3.330152 0,-4.600796 6.46839,-6.468374 11.26869,-14.090607 14.26819,-22.655576 3.8176,-10.901638 4.4324,-22.527406 1.8008,-33.744917 -11.21599,-2.631396 -22.84218,-2.0165686 -33.743276,1.800893 -8.564557,2.999642 -16.186749,7.8005 -22.654813,14.268875 -1.270257,1.269993 -3.329667,1.270318 -4.600575,0 -1.270257,-1.270318 -1.270257,-3.330152 0,-4.600796 C 70.876916,15.060166 79.323393,9.7410943 88.816978,6.4161468 101.55466,1.9558829 115.18431,1.4422255 128.23266,4.9324284 c 1.12355,0.3005823 2.00119,1.1782565 2.30175,2.3018617 3.48971,13.0493059 2.97673,26.6796069 -1.48429,39.4172689 -3.32479,9.494041 -8.64328,17.940598 -15.80779,25.105452 -0.63497,0.634996 -1.46738,0.95282 -2.30013,0.95282 z"
         id="path210" /><path
         style="fill:#5e2a41;stroke-width:0.325298"
         d="m 26.701899,73.536107 c -0.270641,0 -0.543234,-0.03383 -0.805743,-0.10052 L 4.31968,67.944431 C 3.3317747,67.692969 2.51855,66.992587 2.1236481,66.053104 1.7284209,65.113297 1.7967317,64.042391 2.3077621,63.160488 4.8378668,58.795539 7.9531672,54.748088 11.567788,51.13004 23.04434,39.652937 38.930847,33.418782 55.152728,34.039465 c 1.746481,0.05725 3.145879,1.490875 3.145879,3.251103 0,1.796337 -1.454697,3.253055 -3.251273,3.253055 h -0.0033 c -0.04131,0 -0.08262,-6.51e-4 -0.123935,-0.0023 -14.422703,-0.552694 -28.549066,4.985307 -38.750808,15.187863 -2.174237,2.175969 -4.144843,4.526301 -5.888072,7.018791 l 17.152536,4.365275 c 1.44266,0.333113 2.51937,1.625877 2.51937,3.169451 0,1.796663 -1.454697,3.253381 -3.251273,3.253381 z"
         id="path218" /><path
         style="fill:#5e2a41;stroke-width:0.325298"
         d="m 70.677838,133.60378 c -0.427756,0 -0.856488,-0.0842 -1.260823,-0.25439 -0.940088,-0.39524 -1.640112,-1.20818 -1.891561,-2.19581 l -5.494471,-21.58077 c -0.443371,-1.74136 0.608942,-3.51199 2.349894,-3.95506 1.739975,-0.44437 3.511504,0.60865 3.954874,2.34968 l 4.384908,17.22428 c 2.492696,-1.74331 4.843241,-3.71467 7.020081,-5.88933 10.20109,-10.20158 15.736873,-24.32799 15.185832,-38.755614 -0.06831,-1.795361 1.331412,-3.30608 3.12636,-3.37472 1.792011,-0.0758 3.306228,1.331476 3.374868,3.126512 0.61903,16.231768 -5.608958,32.125562 -17.088112,43.605262 -3.618525,3.61512 -7.666107,6.7309 -12.031172,9.26145 -0.501597,0.29115 -1.065324,0.43851 -1.630678,0.43851 z"
         id="path222" /></g><text
       xml:space="preserve"
       style="font-size:50.8px;font-family:Candara;-inkscape-font-specification:Candara;fill:#4d2235;fill-opacity:1;stroke-width:0.264583"
       x="14.017897"
       y="111.74103"
       id="text720"
       transform="rotate(-41.01788)"><tspan
         sodipodi:role="line"
         id="tspan718"
         style="font-style:normal;font-variant:normal;font-weight:bold;font-stretch:normal;font-size:50.8px;font-family:'Comic Sans MS';-inkscape-font-specification:'Comic Sans MS Bold';fill:#4d2235;fill-opacity:1;stroke-width:0.264583"
         x="14.017897"
         y="111.74103">X</tspan></text><text
       xml:space="preserve"
       style="font-size:50.8px;font-family:Candara;-inkscape-font-specification:Candara;fill:#5e2a41;fill-opacity:1;stroke-width:0.264583"
       x="19.250092"
       y="110.97423"
       id="text720-4"
       transform="rotate(-41.01788)"><tspan
         sodipodi:role="line"
         id="tspan718-4"
         style="font-style:normal;font-variant:normal;font-weight:bold;font-stretch:normal;font-size:50.8px;font-family:'Comic Sans MS';-inkscape-font-specification:'Comic Sans MS Bold';fill:#5e2a41;fill-opacity:1;stroke-width:0.264583"
         x="19.250092"
         y="110.97423">X</tspan></text><text
       xml:space="preserve"
       style="font-style:normal;font-variant:normal;font-weight:bold;font-stretch:normal;font-size:50.8px;font-family:'Comic Sans MS';-inkscape-font-specification:'Comic Sans MS Bold';fill:#5e2a41;fill-opacity:1;stroke-width:0.264583"
       x="-14.577334"
       y="110.16022"
       id="text1394"
       transform="rotate(-42.913463)"><tspan
         sodipodi:role="line"
         id="tspan1392"
         style="stroke-width:0.264583"
         x="-14.577334"
         y="110.16022">(</tspan></text></g></svg>
